# xmcd
#
# Track frame offsets:
#	150
#	14835
#	28595
#	41130
#	53982
#	67362
#	79980
#	93270
#	108527
#	122827
#	137220
#	152570
#	161442
#	174517
#	188745
#	203285
#	215382
#	227952
#	241442
#	256317
#	270140
#	282550
#	295092
#	308657
#	321147
#
# Disc length: 4444 seconds
#
# Revision: 1
# Processed by: cddbd v1.5.2PL0 Copyright (c) Steve Scherf et al.
# Submitted via: audiograbber 1.83.01
#
DISCID=6c115a19
DTITLE=Various Artist - Gospel Classiscs (1927-1937)
DYEAR=1993
DGENRE=Gospel
TTITLE0=Jesse May Hill - Earth Is No Resting Place
TTITLE1=Jesse May Hill - The Crucifixtion Of Christ
TTITLE2=Jesse May Hill - God Rode In The Windstorm
TTITLE3=Jesse May Hill - Untitled
TTITLE4=Jesse May Hill - This World Is Not My Home
TTITLE5=Jesse May Hill - Sunshine In The Shadows
TTITLE6=Jesse May Hill - I'm Going To Lift Up A Standard For My King
TTITLE7=Unknown Artists - Lonesome Valley
TTITLE8=Unknown Artists - My God Don't Like It
TTITLE9=Unknown Artists - On The Other Shore 
TTITLE10=Unknown Artists - There's A Man Going Round Taking Names 
TTITLE11=Blind Willie Davis - When The Saints Go Marching In
TTITLE12=Blind Willie Davis - Rock Of Ages
TTITLE13=Blind Willie Davis - Your Enemy Cannot Harm You
TTITLE14=Blind Willie Davis - I've Got A Key To The Kingdom
TTITLE15=Blind Willie Davis - Trust In God And Do The Right Thing
TTITLE16=Blind Willie Davis - I Believe I'll Go Back Home
TTITLE17=Laura Henton - He's Coming Soon
TTITLE18=Laura Henton - Heavenly Sunshine
TTITLE19=Laura Henton - Lord, You've Sure Been Good To Me
TTITLE20=Laura Henton - I Can Tell The World About This
TTITLE21=Laura Henton - Plenty Good Room In My Father's Kingdom
TTITLE22=Laura Henton - Lord, I Just Can't Keep From Crying Sometimes
TTITLE23=Louisville Sanctified Singers - God Give Me A Light
TTITLE24=Louisville Sanctified Singers - So Glad I'm Here
EXTD=
EXTT0=
EXTT1=
EXTT2=
EXTT3=
EXTT4=
EXTT5=
EXTT6=
EXTT7=
EXTT8=
EXTT9=
EXTT10=
EXTT11=
EXTT12=
EXTT13=
EXTT14=
EXTT15=
EXTT16=
EXTT17=
EXTT18=
EXTT19=
EXTT20=
EXTT21=
EXTT22=
EXTT23=
EXTT24=
PLAYORDER=
